<svg width="830" height="818" viewBox="0 0 830 818" fill="none" xmlns="http://www.w3.org/2000/svg">
<path d="M415.001 308.761V221.542C414.99 214.806 412.956 208.224 409.155 202.626C405.355 197.028 399.958 192.663 393.645 190.083C387.332 187.502 380.386 186.821 373.681 188.125C366.975 189.429 360.812 192.66 355.967 197.411L138.334 409L355.967 620.555C359.171 623.731 362.981 626.252 367.177 627.972C371.373 629.692 375.873 630.577 380.417 630.577C384.962 630.577 389.462 629.692 393.658 627.972C397.854 626.252 401.663 623.731 404.868 620.555C411.354 614.165 414.999 605.497 415.001 596.458V511.625C510.105 513.943 614.028 530.916 691.667 647.583V613.5C691.667 455.592 570.626 325.734 415.001 308.761Z" fill="black"/>
</svg>
